<mxfile host="app.diagrams.net" modified="2024-01-26T08:20:13.581Z" agent="Mozilla/5.0 (Windows NT 10.0; Win64; x64) AppleWebKit/537.36 (KHTML, like Gecko) Chrome/120.0.0.0 Safari/537.36" etag="9S_FbAn5h-6atZKdl0r_" version="23.0.2" type="github">
  <diagram name="第 1 页" id="iy5L7cvPKMk64nNim1CG">
    <mxGraphModel dx="1434" dy="961" grid="1" gridSize="10" guides="1" tooltips="1" connect="1" arrows="1" fold="1" page="1" pageScale="1" pageWidth="827" pageHeight="1169" math="0" shadow="0">
      <root>
        <mxCell id="0" />
        <mxCell id="1" parent="0" />
        <mxCell id="1n4jK1zSNOp-hIoteOij-7" style="edgeStyle=orthogonalEdgeStyle;rounded=0;orthogonalLoop=1;jettySize=auto;html=1;entryX=0.5;entryY=0;entryDx=0;entryDy=0;" edge="1" parent="1" source="YPu-V1tJ_W18TCsgV1Ht-1" target="YPu-V1tJ_W18TCsgV1Ht-2">
          <mxGeometry relative="1" as="geometry" />
        </mxCell>
        <mxCell id="YPu-V1tJ_W18TCsgV1Ht-1" value="appH5-进入结算页" style="strokeWidth=2;html=1;shape=mxgraph.flowchart.terminator;whiteSpace=wrap;" parent="1" vertex="1">
          <mxGeometry x="290" y="40" width="120" height="40" as="geometry" />
        </mxCell>
        <mxCell id="1n4jK1zSNOp-hIoteOij-8" style="edgeStyle=orthogonalEdgeStyle;rounded=0;orthogonalLoop=1;jettySize=auto;html=1;exitX=0.5;exitY=1;exitDx=0;exitDy=0;" edge="1" parent="1" source="YPu-V1tJ_W18TCsgV1Ht-2" target="1n4jK1zSNOp-hIoteOij-4">
          <mxGeometry relative="1" as="geometry" />
        </mxCell>
        <mxCell id="1n4jK1zSNOp-hIoteOij-9" value="点击" style="edgeLabel;html=1;align=center;verticalAlign=middle;resizable=0;points=[];" vertex="1" connectable="0" parent="1n4jK1zSNOp-hIoteOij-8">
          <mxGeometry x="-0.0286" y="-1" relative="1" as="geometry">
            <mxPoint as="offset" />
          </mxGeometry>
        </mxCell>
        <mxCell id="YPu-V1tJ_W18TCsgV1Ht-2" value="选择任何一种支付方式&lt;br&gt;（花呗分期、微信支付、欢太分期、支付宝、花呗、京东白条）" style="rounded=1;whiteSpace=wrap;html=1;absoluteArcSize=1;arcSize=14;strokeWidth=2;" parent="1" vertex="1">
          <mxGeometry x="170" y="140" width="360" height="60" as="geometry" />
        </mxCell>
        <mxCell id="1n4jK1zSNOp-hIoteOij-2" value="走H5支付流程" style="rounded=1;whiteSpace=wrap;html=1;absoluteArcSize=1;arcSize=14;strokeWidth=2;" vertex="1" parent="1">
          <mxGeometry x="150" y="500" width="100" height="40" as="geometry" />
        </mxCell>
        <mxCell id="1n4jK1zSNOp-hIoteOij-3" value="走原生支付流程" style="rounded=1;whiteSpace=wrap;html=1;absoluteArcSize=1;arcSize=14;strokeWidth=2;" vertex="1" parent="1">
          <mxGeometry x="430" y="500" width="100" height="40" as="geometry" />
        </mxCell>
        <mxCell id="1n4jK1zSNOp-hIoteOij-4" value="下单并支付" style="rounded=1;whiteSpace=wrap;html=1;absoluteArcSize=1;arcSize=14;strokeWidth=2;" vertex="1" parent="1">
          <mxGeometry x="305" y="270" width="90" height="40" as="geometry" />
        </mxCell>
        <mxCell id="1n4jK1zSNOp-hIoteOij-10" value="" style="strokeWidth=2;html=1;shape=mxgraph.flowchart.decision;whiteSpace=wrap;" vertex="1" parent="1">
          <mxGeometry x="295" y="350" width="100" height="100" as="geometry" />
        </mxCell>
      </root>
    </mxGraphModel>
  </diagram>
</mxfile>
